<?xml version="1.0" encoding="UTF-8"?>
<svg width="507" height="115" viewBox="0 0 507 115" fill="none" xmlns="http://www.w3.org/2000/svg">
<path d="M17.3223 83.4873H50.3398V91H8.08691V21.3281H17.3223V83.4873ZM80.917 91.957C73.8988 91.957 68.1885 89.6602 63.7861 85.0664C59.3838 80.4408 57.1826 74.2679 57.1826 66.5479V64.9209C57.1826 59.7848 58.1556 55.207 60.1016 51.1875C62.0794 47.1361 64.8229 43.9779 68.332 41.7129C71.873 39.416 75.7012 38.2676 79.8164 38.2676C86.5475 38.2676 91.7793 40.4847 95.5117 44.9189C99.2441 49.3532 101.11 55.7015 101.11 63.9639V67.6484H66.0352C66.1628 72.7526 67.6462 76.8838 70.4854 80.042C73.3564 83.1683 76.9932 84.7314 81.3955 84.7314C84.5218 84.7314 87.1696 84.0934 89.3389 82.8174C91.5081 81.5413 93.4062 79.8506 95.0332 77.7451L100.44 81.9561C96.1019 88.6234 89.5941 91.957 80.917 91.957ZM79.8164 45.541C76.2435 45.541 73.2448 46.849 70.8203 49.4648C68.3958 52.0488 66.8965 55.6855 66.3223 60.375H92.2578V59.7051C92.0026 55.207 90.7904 51.7298 88.6211 49.2734C86.4518 46.7852 83.5169 45.541 79.8164 45.541ZM109.245 64.6816C109.245 56.7383 111.127 50.3581 114.892 45.541C118.656 40.6921 123.585 38.2676 129.678 38.2676C135.739 38.2676 140.54 40.3411 144.081 44.4883V17.5H152.934V91H144.799L144.368 85.4492C140.827 89.7878 135.898 91.957 129.582 91.957C123.585 91.957 118.688 89.5007 114.892 84.5879C111.127 79.6751 109.245 73.263 109.245 65.3516V64.6816ZM118.098 65.6865C118.098 71.5563 119.31 76.1501 121.734 79.4678C124.159 82.7855 127.508 84.4443 131.783 84.4443C137.398 84.4443 141.497 81.9242 144.081 76.8838V53.1016C141.433 48.2207 137.366 45.7803 131.879 45.7803C127.54 45.7803 124.159 47.4551 121.734 50.8047C119.31 54.1543 118.098 59.1149 118.098 65.6865ZM164.609 64.6816C164.609 56.6107 166.476 50.1986 170.208 45.4453C173.94 40.6602 178.885 38.2676 185.042 38.2676C191.358 38.2676 196.287 40.5007 199.828 44.9668L200.259 39.2246H208.346V89.7559C208.346 96.4551 206.352 101.735 202.364 105.595C198.409 109.455 193.081 111.385 186.382 111.385C182.649 111.385 178.997 110.587 175.424 108.992C171.851 107.397 169.123 105.212 167.241 102.437L171.835 97.125C175.631 101.814 180.273 104.159 185.76 104.159C190.066 104.159 193.416 102.947 195.809 100.522C198.233 98.098 199.445 94.6846 199.445 90.2822V85.832C195.904 89.9154 191.071 91.957 184.946 91.957C178.885 91.957 173.972 89.5166 170.208 84.6357C166.476 79.7549 164.609 73.1035 164.609 64.6816ZM173.51 65.6865C173.51 71.5244 174.706 76.1182 177.099 79.4678C179.491 82.7855 182.841 84.4443 187.147 84.4443C192.73 84.4443 196.829 81.9082 199.445 76.8359V53.1973C196.734 48.2526 192.666 45.7803 187.243 45.7803C182.937 45.7803 179.571 47.4551 177.146 50.8047C174.722 54.1543 173.51 59.1149 173.51 65.6865ZM243.229 91.957C236.211 91.957 230.501 89.6602 226.099 85.0664C221.696 80.4408 219.495 74.2679 219.495 66.5479V64.9209C219.495 59.7848 220.468 55.207 222.414 51.1875C224.392 47.1361 227.135 43.9779 230.645 41.7129C234.186 39.416 238.014 38.2676 242.129 38.2676C248.86 38.2676 254.092 40.4847 257.824 44.9189C261.557 49.3532 263.423 55.7015 263.423 63.9639V67.6484H228.348C228.475 72.7526 229.959 76.8838 232.798 80.042C235.669 83.1683 239.306 84.7314 243.708 84.7314C246.834 84.7314 249.482 84.0934 251.651 82.8174C253.821 81.5413 255.719 79.8506 257.346 77.7451L262.753 81.9561C258.414 88.6234 251.907 91.957 243.229 91.957ZM242.129 45.541C238.556 45.541 235.557 46.849 233.133 49.4648C230.708 52.0488 229.209 55.6855 228.635 60.375H254.57V59.7051C254.315 55.207 253.103 51.7298 250.934 49.2734C248.764 46.7852 245.829 45.541 242.129 45.541ZM298.737 47.168C297.397 46.9447 295.946 46.833 294.383 46.833C288.577 46.833 284.637 49.3053 282.563 54.25V91H273.711V39.2246H282.324L282.468 45.2061C285.371 40.5804 289.486 38.2676 294.813 38.2676C296.536 38.2676 297.844 38.4909 298.737 38.9375V47.168ZM328.836 59.9443C320.956 57.6794 315.214 54.904 311.609 51.6182C308.036 48.3005 306.25 44.2171 306.25 39.3682C306.25 33.8812 308.435 29.3512 312.806 25.7783C317.208 22.1735 322.918 20.3711 329.937 20.3711C334.722 20.3711 338.98 21.2962 342.713 23.1465C346.477 24.9967 349.38 27.5488 351.422 30.8027C353.495 34.0566 354.532 37.6136 354.532 41.4736H345.297C345.297 37.2627 343.957 33.9609 341.277 31.5684C338.598 29.1439 334.817 27.9316 329.937 27.9316C325.407 27.9316 321.866 28.9365 319.313 30.9463C316.793 32.9242 315.533 35.6836 315.533 39.2246C315.533 42.0638 316.729 44.4723 319.122 46.4502C321.547 48.3962 325.646 50.1826 331.42 51.8096C337.226 53.4365 341.756 55.2389 345.01 57.2168C348.296 59.1628 350.72 61.4437 352.283 64.0596C353.878 66.6755 354.676 69.7539 354.676 73.2949C354.676 78.9414 352.475 83.4714 348.072 86.8848C343.67 90.2663 337.784 91.957 330.415 91.957C325.63 91.957 321.164 91.0479 317.017 89.2295C312.869 87.3792 309.663 84.859 307.398 81.6689C305.165 78.4788 304.049 74.8581 304.049 70.8066H313.284C313.284 75.0176 314.831 78.3512 317.926 80.8076C321.052 83.2321 325.215 84.4443 330.415 84.4443C335.264 84.4443 338.98 83.4554 341.564 81.4775C344.148 79.4997 345.44 76.804 345.44 73.3906C345.44 69.9772 344.244 67.3454 341.852 65.4951C339.459 63.613 335.12 61.7627 328.836 59.9443ZM382.047 78.0322L394.105 39.2246H403.58L382.765 98.9912C379.543 107.604 374.423 111.911 367.404 111.911L365.729 111.768L362.428 111.146V103.968L364.82 104.159C367.819 104.159 370.148 103.553 371.807 102.341C373.497 101.129 374.885 98.9115 375.97 95.6895L377.932 90.4258L359.461 39.2246H369.127L382.047 78.0322ZM419.897 39.2246L420.185 45.7324C424.14 40.7559 429.308 38.2676 435.688 38.2676C446.631 38.2676 452.149 44.4404 452.245 56.7861V91H443.393V56.7383C443.361 53.0059 442.499 50.2464 440.809 48.46C439.15 46.6735 436.55 45.7803 433.009 45.7803C430.138 45.7803 427.618 46.5459 425.448 48.0771C423.279 49.6084 421.588 51.6182 420.376 54.1064V91H411.523V39.2246H419.897ZM486.363 84.7314C489.521 84.7314 492.281 83.7744 494.642 81.8604C497.002 79.9463 498.31 77.5537 498.565 74.6826H506.939C506.78 77.6494 505.759 80.4727 503.877 83.1523C501.995 85.832 499.475 87.9694 496.316 89.5645C493.19 91.1595 489.872 91.957 486.363 91.957C479.313 91.957 473.699 89.6123 469.52 84.9229C465.372 80.2015 463.299 73.7575 463.299 65.5908V64.1074C463.299 59.0671 464.224 54.585 466.074 50.6611C467.924 46.7373 470.572 43.6908 474.018 41.5215C477.495 39.3522 481.594 38.2676 486.315 38.2676C492.121 38.2676 496.938 40.0062 500.767 43.4834C504.627 46.9606 506.684 51.4746 506.939 57.0254H498.565C498.31 53.6758 497.034 50.9323 494.737 48.7949C492.472 46.6257 489.665 45.541 486.315 45.541C481.817 45.541 478.324 47.168 475.836 50.4219C473.38 53.6439 472.151 58.3174 472.151 64.4424V66.1172C472.151 72.0827 473.38 76.6764 475.836 79.8984C478.292 83.1204 481.801 84.7314 486.363 84.7314Z" fill="#1BA778"/>
<rect x="8" y="100" width="150" height="5" fill="#1BA778"/>
<rect x="212" y="100" width="145" height="5" fill="#1BA778"/>
<rect x="391" y="100" width="116" height="5" fill="#1BA778"/>
</svg>

